<svg xmlns="http://www.w3.org/2000/svg" version="1.1" xmlns:xlink="http://www.w3.org/1999/xlink" xmlns:svgjs="http://svgjs.com/svgjs" width="1440" height="560" preserveAspectRatio="none" viewBox="0 0 1440 560"><g mask="url(&quot;#SvgjsMask1176&quot;)" fill="none"><g mask="url(&quot;#SvgjsMask1178&quot;)"><path d="M468 300L492 276L516 276L540 252L564 252L588 252L612 252L636 252L660 252L684 252L708 252M948 348L972 324L996 300L1020 300L1044 300L1068 300L1092 300L1116 300M612 300L636 324L660 324L684 324L708 324L732 324L756 324L780 324L804 324L828 324M588 300L612 276L636 276L660 276L684 276L708 276L732 276L756 276L780 276L804 276L828 276L852 276L876 276L900 252M324 276L348 252L372 252L396 252L420 252L444 252L468 252L492 252L516 252M396 300L420 276L444 276M876 300L900 300L924 300L948 300L972 300L996 276L1020 276L1044 276L1068 276L1092 276M996 348L1020 324L1044 324L1068 324L1092 324L1116 324M252 276L276 252L300 252L324 252M348 300L372 276L396 276M516 300L540 324L564 324L588 324L612 324M564 300L588 276M-12 276L12 276L36 276L60 276L84 276L108 276L132 276L156 276L180 276L204 276L228 276L252 276L276 276L300 276L324 276L348 300L372 300L396 300L420 300L444 300L468 300L492 300L516 300L540 300L564 300L588 300L612 300L636 300L660 300L684 300L708 300L732 300L756 300L780 300L804 300L828 300L852 300L876 300L900 324L924 324L948 348L972 348L996 348L1020 348L1044 348L1068 348L1092 348L1116 348" stroke="url(#SvgjsLinearGradient1177)" stroke-width="4"></path><path d="M1110 348 a6 6 0 1 0 12 0 a6 6 0 1 0 -12 0zM702 252 a6 6 0 1 0 12 0 a6 6 0 1 0 -12 0zM1110 300 a6 6 0 1 0 12 0 a6 6 0 1 0 -12 0zM822 324 a6 6 0 1 0 12 0 a6 6 0 1 0 -12 0zM894 252 a6 6 0 1 0 12 0 a6 6 0 1 0 -12 0zM510 252 a6 6 0 1 0 12 0 a6 6 0 1 0 -12 0zM438 276 a6 6 0 1 0 12 0 a6 6 0 1 0 -12 0zM1086 276 a6 6 0 1 0 12 0 a6 6 0 1 0 -12 0zM1110 324 a6 6 0 1 0 12 0 a6 6 0 1 0 -12 0zM318 252 a6 6 0 1 0 12 0 a6 6 0 1 0 -12 0zM390 276 a6 6 0 1 0 12 0 a6 6 0 1 0 -12 0zM606 324 a6 6 0 1 0 12 0 a6 6 0 1 0 -12 0zM582 276 a6 6 0 1 0 12 0 a6 6 0 1 0 -12 0z" fill="url(#SvgjsLinearGradient1177)"></path><path d="M780 348L804 372L828 372L852 372L876 372M204 300L228 324L252 324L276 324L300 324L324 324M1188 372L1212 396M1140 372L1164 396L1188 396L1212 420M1068 372L1092 396L1116 396L1140 396L1164 420L1188 420L1212 444M108 300L132 324L156 324L180 324L204 324M84 300L108 324M852 348L876 324M732 348L756 372L780 372M492 324L516 324M684 348L708 372L732 372M60 300L84 324M36 300L60 324M-12 300L12 300L36 300L60 300L84 300L108 300L132 300L156 300L180 300L204 300L228 300L252 300L276 300L300 300L324 300L348 324L372 324L396 324L420 324L444 324L468 324L492 324L516 348L540 348L564 348L588 348L612 348L636 348L660 348L684 348L708 348L732 348L756 348L780 348L804 348L828 348L852 348L876 348L900 348L924 348L948 372L972 372L996 372L1020 372L1044 372L1068 372L1092 372L1116 372L1140 372L1164 372L1188 372L1212 372" stroke="url(#SvgjsLinearGradient1177)" stroke-width="4"></path><path d="M1206 372 a6 6 0 1 0 12 0 a6 6 0 1 0 -12 0zM870 372 a6 6 0 1 0 12 0 a6 6 0 1 0 -12 0zM318 324 a6 6 0 1 0 12 0 a6 6 0 1 0 -12 0zM1206 396 a6 6 0 1 0 12 0 a6 6 0 1 0 -12 0zM1206 420 a6 6 0 1 0 12 0 a6 6 0 1 0 -12 0zM1206 444 a6 6 0 1 0 12 0 a6 6 0 1 0 -12 0zM198 324 a6 6 0 1 0 12 0 a6 6 0 1 0 -12 0zM102 324 a6 6 0 1 0 12 0 a6 6 0 1 0 -12 0zM870 324 a6 6 0 1 0 12 0 a6 6 0 1 0 -12 0zM774 372 a6 6 0 1 0 12 0 a6 6 0 1 0 -12 0zM510 324 a6 6 0 1 0 12 0 a6 6 0 1 0 -12 0zM726 372 a6 6 0 1 0 12 0 a6 6 0 1 0 -12 0zM78 324 a6 6 0 1 0 12 0 a6 6 0 1 0 -12 0zM54 324 a6 6 0 1 0 12 0 a6 6 0 1 0 -12 0z" fill="url(#SvgjsLinearGradient1177)"></path><path d="M324 228L348 204L372 204L396 204M444 228L468 204L492 204L516 204L540 204L564 204L588 180L612 180L636 180L660 180M564 228L588 228L612 228L636 228L660 228M900 204L924 180M684 204L708 228L732 228M876 204L900 180L924 156L948 132L972 132L996 132L1020 132L1044 132L1068 132L1092 132L1116 156M852 204L876 228L900 228L924 228M300 228L324 204L348 180L372 180L396 180L420 180L444 180L468 180L492 180L516 180M996 228L1020 228L1044 228L1068 204L1092 204L1116 204M972 228L996 204L1020 204L1044 204L1068 180L1092 180M1044 252L1068 252L1092 252L1116 252M-12 252L12 252L36 252L60 252L84 252L108 252L132 252L156 252L180 252L204 228L228 228L252 228L276 228L300 228L324 228L348 228L372 228L396 228L420 228L444 228L468 228L492 228L516 228L540 228L564 228L588 204L612 204L636 204L660 204L684 204L708 204L732 204L756 204L780 204L804 204L828 204L852 204L876 204L900 204L924 204L948 204L972 228L996 228L1020 252L1044 252L1068 228" stroke="url(#SvgjsLinearGradient1177)" stroke-width="4"></path><path d="M1062 228 a6 6 0 1 0 12 0 a6 6 0 1 0 -12 0zM390 204 a6 6 0 1 0 12 0 a6 6 0 1 0 -12 0zM654 180 a6 6 0 1 0 12 0 a6 6 0 1 0 -12 0zM654 228 a6 6 0 1 0 12 0 a6 6 0 1 0 -12 0zM918 180 a6 6 0 1 0 12 0 a6 6 0 1 0 -12 0zM726 228 a6 6 0 1 0 12 0 a6 6 0 1 0 -12 0zM1110 156 a6 6 0 1 0 12 0 a6 6 0 1 0 -12 0zM918 228 a6 6 0 1 0 12 0 a6 6 0 1 0 -12 0zM510 180 a6 6 0 1 0 12 0 a6 6 0 1 0 -12 0zM1110 204 a6 6 0 1 0 12 0 a6 6 0 1 0 -12 0zM1086 180 a6 6 0 1 0 12 0 a6 6 0 1 0 -12 0zM1110 252 a6 6 0 1 0 12 0 a6 6 0 1 0 -12 0z" fill="url(#SvgjsLinearGradient1177)"></path><path d="M756 396L780 420L804 420M876 396L900 396L924 396L948 420L972 420L996 420L1020 420L1044 420L1068 420L1092 420L1116 420L1140 420L1164 444L1188 444M12 324L36 324M636 372L660 396M684 396L708 420L732 420L756 420M588 372L612 396L636 396M468 348L492 372M660 372L684 372M444 348L468 372M-12 324L12 324L36 348L60 348L84 348L108 348L132 348L156 348L180 348L204 348L228 348L252 348L276 348L300 348L324 348L348 348L372 348L396 348L420 348L444 348L468 348L492 348L516 372L540 372L564 372L588 372L612 372L636 372L660 372L684 396L708 396L732 396L756 396L780 396L804 396L828 396L852 396L876 396L900 372L924 372L948 396L972 396L996 396L1020 396L1044 396" stroke="url(#SvgjsLinearGradient1177)" stroke-width="4"></path><path d="M1038 396 a6 6 0 1 0 12 0 a6 6 0 1 0 -12 0zM798 420 a6 6 0 1 0 12 0 a6 6 0 1 0 -12 0zM1182 444 a6 6 0 1 0 12 0 a6 6 0 1 0 -12 0zM30 324 a6 6 0 1 0 12 0 a6 6 0 1 0 -12 0zM654 396 a6 6 0 1 0 12 0 a6 6 0 1 0 -12 0zM750 420 a6 6 0 1 0 12 0 a6 6 0 1 0 -12 0zM630 396 a6 6 0 1 0 12 0 a6 6 0 1 0 -12 0zM486 372 a6 6 0 1 0 12 0 a6 6 0 1 0 -12 0zM678 372 a6 6 0 1 0 12 0 a6 6 0 1 0 -12 0zM462 372 a6 6 0 1 0 12 0 a6 6 0 1 0 -12 0z" fill="url(#SvgjsLinearGradient1177)"></path><path d="M228 204L252 180L276 180L300 180L324 180M108 228L132 204L156 204L180 204M84 228L108 204L132 180M-12 228L12 228L36 228L60 228L84 228L108 228L132 228L156 228L180 228L204 204L228 204L252 204" stroke="url(#SvgjsLinearGradient1177)" stroke-width="4"></path><path d="M246 204 a6 6 0 1 0 12 0 a6 6 0 1 0 -12 0zM318 180 a6 6 0 1 0 12 0 a6 6 0 1 0 -12 0zM174 204 a6 6 0 1 0 12 0 a6 6 0 1 0 -12 0zM126 180 a6 6 0 1 0 12 0 a6 6 0 1 0 -12 0z" fill="url(#SvgjsLinearGradient1177)"></path><path d="M564 396L588 396M420 396L444 372M-12 348L12 348L36 372L60 372L84 372L108 372L132 372L156 372L180 372L204 372L228 372L252 372L276 372L300 372L324 372L348 372L372 372L396 372L420 396L444 396L468 396L492 396L516 396L540 396L564 396L588 420L612 420L636 420L660 420" stroke="url(#SvgjsLinearGradient1177)" stroke-width="4"></path><path d="M654 420 a6 6 0 1 0 12 0 a6 6 0 1 0 -12 0zM582 396 a6 6 0 1 0 12 0 a6 6 0 1 0 -12 0zM438 372 a6 6 0 1 0 12 0 a6 6 0 1 0 -12 0z" fill="url(#SvgjsLinearGradient1177)"></path><path d="M-12 204L12 204" stroke="url(#SvgjsLinearGradient1177)" stroke-width="4"></path><path d="M6 204 a6 6 0 1 0 12 0 a6 6 0 1 0 -12 0z" fill="url(#SvgjsLinearGradient1177)"></path><path d="M60 180L84 204M36 180L60 204M-12 180L12 180L36 180L60 180L84 180" stroke="url(#SvgjsLinearGradient1177)" stroke-width="4"></path><path d="M78 180 a6 6 0 1 0 12 0 a6 6 0 1 0 -12 0zM78 204 a6 6 0 1 0 12 0 a6 6 0 1 0 -12 0zM54 204 a6 6 0 1 0 12 0 a6 6 0 1 0 -12 0z" fill="url(#SvgjsLinearGradient1177)"></path><path d="M36 396L60 420L84 420M540 420L564 444L588 468L612 468L636 492L660 516L684 516M204 396L228 420L252 420L276 420L300 420L324 420L348 420L372 420L396 420M420 420L444 444L468 444L492 444L516 444L540 444L564 468L588 492L612 492M732 444L756 468L780 468L804 468L828 468L852 468L876 468L900 468L924 468M108 396L132 420L156 420L180 420L204 420L228 444L252 444M636 444L660 468L684 468L708 468L732 468L756 492L780 492M12 396L36 420L60 444L84 444L108 444L132 444L156 444L180 444L204 444L228 468L252 468L276 468M828 444L852 444L876 444L900 444L924 444L948 468L972 468M-12 396L12 396L36 396L60 396L84 396L108 396L132 396L156 396L180 396L204 396L228 396L252 396L276 396L300 396L324 396L348 396L372 396L396 396L420 420L444 420L468 420L492 420L516 420L540 420L564 420L588 444L612 444L636 444L660 444L684 444L708 444L732 444L756 444L780 444L804 444L828 444L852 420L876 420" stroke="url(#SvgjsLinearGradient1177)" stroke-width="4"></path><path d="M870 420 a6 6 0 1 0 12 0 a6 6 0 1 0 -12 0zM78 420 a6 6 0 1 0 12 0 a6 6 0 1 0 -12 0zM678 516 a6 6 0 1 0 12 0 a6 6 0 1 0 -12 0zM390 420 a6 6 0 1 0 12 0 a6 6 0 1 0 -12 0zM606 492 a6 6 0 1 0 12 0 a6 6 0 1 0 -12 0zM918 468 a6 6 0 1 0 12 0 a6 6 0 1 0 -12 0zM246 444 a6 6 0 1 0 12 0 a6 6 0 1 0 -12 0zM774 492 a6 6 0 1 0 12 0 a6 6 0 1 0 -12 0zM270 468 a6 6 0 1 0 12 0 a6 6 0 1 0 -12 0zM966 468 a6 6 0 1 0 12 0 a6 6 0 1 0 -12 0z" fill="url(#SvgjsLinearGradient1177)"></path><path d="M84 156L108 132M300 156L324 132L348 132L372 132M60 156L84 132L108 108L132 108L156 108L180 108M204 156L228 132L252 132M-12 156L12 156L36 156L60 156L84 156L108 156L132 156L156 156L180 156L204 156L228 156L252 156L276 156L300 156L324 156L348 156L372 156" stroke="url(#SvgjsLinearGradient1177)" stroke-width="4"></path><path d="M366 156 a6 6 0 1 0 12 0 a6 6 0 1 0 -12 0zM102 132 a6 6 0 1 0 12 0 a6 6 0 1 0 -12 0zM366 132 a6 6 0 1 0 12 0 a6 6 0 1 0 -12 0zM174 108 a6 6 0 1 0 12 0 a6 6 0 1 0 -12 0zM246 132 a6 6 0 1 0 12 0 a6 6 0 1 0 -12 0z" fill="url(#SvgjsLinearGradient1177)"></path></g></g><defs><mask id="SvgjsMask1176"><rect width="1440" height="560" fill="#ffffff"></rect></mask><linearGradient x1="0" y1="280" x2="1252.8" y2="280" gradientUnits="userSpaceOnUse" id="SvgjsLinearGradient1177"><stop stop-color="#3a7cc3" offset="0"></stop><stop stop-color="#dd1133" offset="1"></stop></linearGradient><mask id="SvgjsMask1178"><rect width="1440" height="560" fill="white"></rect><path d="M1113 348 a3 3 0 1 0 6 0 a3 3 0 1 0 -6 0zM705 252 a3 3 0 1 0 6 0 a3 3 0 1 0 -6 0zM1113 300 a3 3 0 1 0 6 0 a3 3 0 1 0 -6 0zM825 324 a3 3 0 1 0 6 0 a3 3 0 1 0 -6 0zM897 252 a3 3 0 1 0 6 0 a3 3 0 1 0 -6 0zM513 252 a3 3 0 1 0 6 0 a3 3 0 1 0 -6 0zM441 276 a3 3 0 1 0 6 0 a3 3 0 1 0 -6 0zM1089 276 a3 3 0 1 0 6 0 a3 3 0 1 0 -6 0zM1113 324 a3 3 0 1 0 6 0 a3 3 0 1 0 -6 0zM321 252 a3 3 0 1 0 6 0 a3 3 0 1 0 -6 0zM393 276 a3 3 0 1 0 6 0 a3 3 0 1 0 -6 0zM609 324 a3 3 0 1 0 6 0 a3 3 0 1 0 -6 0zM585 276 a3 3 0 1 0 6 0 a3 3 0 1 0 -6 0z" fill="black"></path><path d="M1209 372 a3 3 0 1 0 6 0 a3 3 0 1 0 -6 0zM873 372 a3 3 0 1 0 6 0 a3 3 0 1 0 -6 0zM321 324 a3 3 0 1 0 6 0 a3 3 0 1 0 -6 0zM1209 396 a3 3 0 1 0 6 0 a3 3 0 1 0 -6 0zM1209 420 a3 3 0 1 0 6 0 a3 3 0 1 0 -6 0zM1209 444 a3 3 0 1 0 6 0 a3 3 0 1 0 -6 0zM201 324 a3 3 0 1 0 6 0 a3 3 0 1 0 -6 0zM105 324 a3 3 0 1 0 6 0 a3 3 0 1 0 -6 0zM873 324 a3 3 0 1 0 6 0 a3 3 0 1 0 -6 0zM777 372 a3 3 0 1 0 6 0 a3 3 0 1 0 -6 0zM513 324 a3 3 0 1 0 6 0 a3 3 0 1 0 -6 0zM729 372 a3 3 0 1 0 6 0 a3 3 0 1 0 -6 0zM81 324 a3 3 0 1 0 6 0 a3 3 0 1 0 -6 0zM57 324 a3 3 0 1 0 6 0 a3 3 0 1 0 -6 0z" fill="black"></path><path d="M1065 228 a3 3 0 1 0 6 0 a3 3 0 1 0 -6 0zM393 204 a3 3 0 1 0 6 0 a3 3 0 1 0 -6 0zM657 180 a3 3 0 1 0 6 0 a3 3 0 1 0 -6 0zM657 228 a3 3 0 1 0 6 0 a3 3 0 1 0 -6 0zM921 180 a3 3 0 1 0 6 0 a3 3 0 1 0 -6 0zM729 228 a3 3 0 1 0 6 0 a3 3 0 1 0 -6 0zM1113 156 a3 3 0 1 0 6 0 a3 3 0 1 0 -6 0zM921 228 a3 3 0 1 0 6 0 a3 3 0 1 0 -6 0zM513 180 a3 3 0 1 0 6 0 a3 3 0 1 0 -6 0zM1113 204 a3 3 0 1 0 6 0 a3 3 0 1 0 -6 0zM1089 180 a3 3 0 1 0 6 0 a3 3 0 1 0 -6 0zM1113 252 a3 3 0 1 0 6 0 a3 3 0 1 0 -6 0z" fill="black"></path><path d="M1041 396 a3 3 0 1 0 6 0 a3 3 0 1 0 -6 0zM801 420 a3 3 0 1 0 6 0 a3 3 0 1 0 -6 0zM1185 444 a3 3 0 1 0 6 0 a3 3 0 1 0 -6 0zM33 324 a3 3 0 1 0 6 0 a3 3 0 1 0 -6 0zM657 396 a3 3 0 1 0 6 0 a3 3 0 1 0 -6 0zM753 420 a3 3 0 1 0 6 0 a3 3 0 1 0 -6 0zM633 396 a3 3 0 1 0 6 0 a3 3 0 1 0 -6 0zM489 372 a3 3 0 1 0 6 0 a3 3 0 1 0 -6 0zM681 372 a3 3 0 1 0 6 0 a3 3 0 1 0 -6 0zM465 372 a3 3 0 1 0 6 0 a3 3 0 1 0 -6 0z" fill="black"></path><path d="M249 204 a3 3 0 1 0 6 0 a3 3 0 1 0 -6 0zM321 180 a3 3 0 1 0 6 0 a3 3 0 1 0 -6 0zM177 204 a3 3 0 1 0 6 0 a3 3 0 1 0 -6 0zM129 180 a3 3 0 1 0 6 0 a3 3 0 1 0 -6 0z" fill="black"></path><path d="M657 420 a3 3 0 1 0 6 0 a3 3 0 1 0 -6 0zM585 396 a3 3 0 1 0 6 0 a3 3 0 1 0 -6 0zM441 372 a3 3 0 1 0 6 0 a3 3 0 1 0 -6 0z" fill="black"></path><path d="M9 204 a3 3 0 1 0 6 0 a3 3 0 1 0 -6 0z" fill="black"></path><path d="M81 180 a3 3 0 1 0 6 0 a3 3 0 1 0 -6 0zM81 204 a3 3 0 1 0 6 0 a3 3 0 1 0 -6 0zM57 204 a3 3 0 1 0 6 0 a3 3 0 1 0 -6 0z" fill="black"></path><path d="M873 420 a3 3 0 1 0 6 0 a3 3 0 1 0 -6 0zM81 420 a3 3 0 1 0 6 0 a3 3 0 1 0 -6 0zM681 516 a3 3 0 1 0 6 0 a3 3 0 1 0 -6 0zM393 420 a3 3 0 1 0 6 0 a3 3 0 1 0 -6 0zM609 492 a3 3 0 1 0 6 0 a3 3 0 1 0 -6 0zM921 468 a3 3 0 1 0 6 0 a3 3 0 1 0 -6 0zM249 444 a3 3 0 1 0 6 0 a3 3 0 1 0 -6 0zM777 492 a3 3 0 1 0 6 0 a3 3 0 1 0 -6 0zM273 468 a3 3 0 1 0 6 0 a3 3 0 1 0 -6 0zM969 468 a3 3 0 1 0 6 0 a3 3 0 1 0 -6 0z" fill="black"></path><path d="M369 156 a3 3 0 1 0 6 0 a3 3 0 1 0 -6 0zM105 132 a3 3 0 1 0 6 0 a3 3 0 1 0 -6 0zM369 132 a3 3 0 1 0 6 0 a3 3 0 1 0 -6 0zM177 108 a3 3 0 1 0 6 0 a3 3 0 1 0 -6 0zM249 132 a3 3 0 1 0 6 0 a3 3 0 1 0 -6 0z" fill="black"></path></mask></defs></svg>