<svg xmlns="http://www.w3.org/2000/svg" version="1.1" xmlns:xlink="http://www.w3.org/1999/xlink" xmlns:svgjs="http://svgjs.com/svgjs" width="1440" height="560" preserveAspectRatio="none" viewBox="0 0 1440 560"><g mask="url(&quot;#SvgjsMask1005&quot;)" fill="none"><path d="M-176.4 371.6C-31.01 364.72 139.67 110.74 345.72 114 551.77 117.26 487.96 546.85 606.78 628.69" stroke="rgba(51,121,194,0.58)" stroke-width="2"></path><path d="M-236.31 185.61C-115.96 185.8 1.84 255.61 239.98 255.61 478.13 255.61 466.18 181.89 716.27 185.61 966.36 189.33 1042.44 539.72 1192.56 561.43" stroke="rgba(51,121,194,0.58)" stroke-width="2"></path><path d="M-111.52 428.03C22.12 426.47 139.31 275.68 401.25 276.83 663.19 277.98 757.58 624.66 914.02 642.78" stroke="rgba(51,121,194,0.58)" stroke-width="2"></path><path d="M-75.42 218.31C88.9 220.38 224.55 404.33 553.72 408.71 882.89 413.09 1018 604.23 1182.86 606.54" stroke="rgba(51,121,194,0.58)" stroke-width="2"></path><path d="M-177.04 235.05C20.28 239.7 268 509.55 561.15 515.05 854.3 520.55 834.21 620.52 930.24 621.58" stroke="rgba(51,121,194,0.58)" stroke-width="2"></path></g><defs><mask id="SvgjsMask1005"><rect width="1440" height="560" fill="#ffffff"></rect></mask></defs></svg>