<svg xmlns="http://www.w3.org/2000/svg" version="1.1" xmlns:xlink="http://www.w3.org/1999/xlink" xmlns:svgjs="http://svgjs.com/svgjs" width="1440" height="560" preserveAspectRatio="none" viewBox="0 0 1440 560"><g mask="url(&quot;#SvgjsMask1639&quot;)" fill="none"><rect width="1440" height="560" x="0" y="0" fill="url(#SvgjsLinearGradient1640)"></rect><path d="M1440 0L1226.03 0L1440 44.23z" fill="rgba(255, 255, 255, .1)"></path><path d="M1226.03 0L1440 44.23L1440 124.82999999999998L910.05 0z" fill="rgba(255, 255, 255, .075)"></path><path d="M910.05 0L1440 124.82999999999998L1440 221.58999999999997L730.4599999999999 0z" fill="rgba(255, 255, 255, .05)"></path><path d="M730.4599999999999 0L1440 221.58999999999997L1440 279.76L230.67999999999995 0z" fill="rgba(255, 255, 255, .025)"></path><path d="M0 560L534.77 560L0 387.23z" fill="rgba(0, 0, 0, .1)"></path><path d="M0 387.23L534.77 560L563.59 560L0 309.93z" fill="rgba(0, 0, 0, .075)"></path><path d="M0 309.93L563.59 560L836.4300000000001 560L0 287.39z" fill="rgba(0, 0, 0, .05)"></path><path d="M0 287.39L836.4300000000001 560L997.08 560L0 144.13z" fill="rgba(0, 0, 0, .025)"></path></g><defs><mask id="SvgjsMask1639"><rect width="1440" height="560" fill="#ffffff"></rect></mask><linearGradient x1="15.28%" y1="-39.29%" x2="84.72%" y2="139.29%" gradientUnits="userSpaceOnUse" id="SvgjsLinearGradient1640"><stop stop-color="rgba(71, 100, 130, 1)" offset="0"></stop><stop stop-color="rgba(255, 255, 255, 1)" offset="1"></stop></linearGradient></defs></svg>