<svg xmlns="http://www.w3.org/2000/svg" version="1.1" xmlns:xlink="http://www.w3.org/1999/xlink" xmlns:svgjs="http://svgjs.com/svgjs" width="1440" height="560" preserveAspectRatio="none" viewBox="0 0 1440 560"><g mask="url(&quot;#SvgjsMask1633&quot;)" fill="none"><rect width="1440" height="560" x="0" y="0" fill="url(#SvgjsLinearGradient1634)"></rect><path d="M1440 0L1173.73 0L1440 80.87z" fill="rgba(255, 255, 255, .1)"></path><path d="M1173.73 0L1440 80.87L1440 291.18L847.6400000000001 0z" fill="rgba(255, 255, 255, .075)"></path><path d="M847.6400000000001 0L1440 291.18L1440 331.36L330.8700000000001 0z" fill="rgba(255, 255, 255, .05)"></path><path d="M330.8700000000001 0L1440 331.36L1440 397.70000000000005L228.04000000000013 0z" fill="rgba(255, 255, 255, .025)"></path><path d="M0 560L171.19 560L0 415.13z" fill="rgba(0, 0, 0, .1)"></path><path d="M0 415.13L171.19 560L661.47 560L0 269.95z" fill="rgba(0, 0, 0, .075)"></path><path d="M0 269.95L661.47 560L778.09 560L0 101.57999999999998z" fill="rgba(0, 0, 0, .05)"></path><path d="M0 101.57999999999998L778.09 560L836.5600000000001 560L0 76.49999999999999z" fill="rgba(0, 0, 0, .025)"></path></g><defs><mask id="SvgjsMask1633"><rect width="1440" height="560" fill="#ffffff"></rect></mask><linearGradient x1="15.28%" y1="-39.29%" x2="84.72%" y2="139.29%" gradientUnits="userSpaceOnUse" id="SvgjsLinearGradient1634"><stop stop-color="rgba(71, 100, 130, 1)" offset="0"></stop><stop stop-color="rgba(255, 255, 255, 1)" offset="1"></stop></linearGradient></defs></svg>