<?xml version="1.0" standalone="no"?>
<svg xmlns:xlink="http://www.w3.org/1999/xlink" id="wave" style="transform:rotate(0deg); transition: 0.3s" viewBox="0 0 1440 490" version="1.1" xmlns="http://www.w3.org/2000/svg"><defs><linearGradient id="sw-gradient-0" x1="0" x2="0" y1="1" y2="0"><stop stop-color="rgba(115, 147, 179, 1)" offset="0%"/><stop stop-color="rgba(8, 143, 143, 1)" offset="100%"/></linearGradient></defs><path style="transform:translate(0, 0px); opacity:1" fill="url(#sw-gradient-0)" d="M0,245L26.7,253.2C53.3,261,107,278,160,269.5C213.3,261,267,229,320,212.3C373.3,196,427,196,480,171.5C533.3,147,587,98,640,138.8C693.3,180,747,310,800,367.5C853.3,425,907,408,960,351.2C1013.3,294,1067,196,1120,155.2C1173.3,114,1227,131,1280,114.3C1333.3,98,1387,49,1440,89.8C1493.3,131,1547,261,1600,302.2C1653.3,343,1707,294,1760,228.7C1813.3,163,1867,82,1920,49C1973.3,16,2027,33,2080,106.2C2133.3,180,2187,310,2240,375.7C2293.3,441,2347,441,2400,424.7C2453.3,408,2507,376,2560,375.7C2613.3,376,2667,408,2720,424.7C2773.3,441,2827,441,2880,392C2933.3,343,2987,245,3040,228.7C3093.3,212,3147,278,3200,269.5C3253.3,261,3307,180,3360,138.8C3413.3,98,3467,98,3520,138.8C3573.3,180,3627,261,3680,253.2C3733.3,245,3787,147,3813,98L3840,49L3840,490L3813.3,490C3786.7,490,3733,490,3680,490C3626.7,490,3573,490,3520,490C3466.7,490,3413,490,3360,490C3306.7,490,3253,490,3200,490C3146.7,490,3093,490,3040,490C2986.7,490,2933,490,2880,490C2826.7,490,2773,490,2720,490C2666.7,490,2613,490,2560,490C2506.7,490,2453,490,2400,490C2346.7,490,2293,490,2240,490C2186.7,490,2133,490,2080,490C2026.7,490,1973,490,1920,490C1866.7,490,1813,490,1760,490C1706.7,490,1653,490,1600,490C1546.7,490,1493,490,1440,490C1386.7,490,1333,490,1280,490C1226.7,490,1173,490,1120,490C1066.7,490,1013,490,960,490C906.7,490,853,490,800,490C746.7,490,693,490,640,490C586.7,490,533,490,480,490C426.7,490,373,490,320,490C266.7,490,213,490,160,490C106.7,490,53,490,27,490L0,490Z"/></svg>