<svg xmlns="http://www.w3.org/2000/svg" version="1.1" xmlns:xlink="http://www.w3.org/1999/xlink" xmlns:svgjs="http://svgjs.com/svgjs" width="1440" height="560" preserveAspectRatio="none" viewBox="0 0 1440 560"><g mask="url(&quot;#SvgjsMask1179&quot;)" fill="none"><rect width="1440" height="560" x="0" y="0" fill="rgba(77, 77, 77, 0.53)"></rect><path d="M1068 388L874 194" stroke-width="6" stroke="url(#SvgjsLinearGradient1180)" stroke-linecap="round" class="TopLeft"></path><path d="M1023 500L667 144" stroke-width="6" stroke="url(#SvgjsLinearGradient1181)" stroke-linecap="round" class="BottomRight"></path><path d="M968 163L1351 546" stroke-width="6" stroke="url(#SvgjsLinearGradient1182)" stroke-linecap="round" class="BottomRight"></path><path d="M397 362L693 658" stroke-width="10" stroke="url(#SvgjsLinearGradient1183)" stroke-linecap="round" class="TopLeft"></path><path d="M918 329L603 14" stroke-width="8" stroke="url(#SvgjsLinearGradient1181)" stroke-linecap="round" class="BottomRight"></path><path d="M1195 454L997 256" stroke-width="6" stroke="url(#SvgjsLinearGradient1182)" stroke-linecap="round" class="BottomRight"></path><path d="M1363 234L1076 -53" stroke-width="6" stroke="url(#SvgjsLinearGradient1183)" stroke-linecap="round" class="TopLeft"></path><path d="M949 206L581 -162" stroke-width="10" stroke="url(#SvgjsLinearGradient1180)" stroke-linecap="round" class="TopLeft"></path><path d="M324 90L-59 -293" stroke-width="6" stroke="url(#SvgjsLinearGradient1182)" stroke-linecap="round" class="BottomRight"></path><path d="M1060 4L697 -359" stroke-width="8" stroke="url(#SvgjsLinearGradient1180)" stroke-linecap="round" class="TopLeft"></path><path d="M112 436L-230 94" stroke-width="8" stroke="url(#SvgjsLinearGradient1183)" stroke-linecap="round" class="TopLeft"></path><path d="M791 445L377 31" stroke-width="8" stroke="url(#SvgjsLinearGradient1183)" stroke-linecap="round" class="TopLeft"></path><path d="M1126 552L1304 730" stroke-width="6" stroke="url(#SvgjsLinearGradient1181)" stroke-linecap="round" class="BottomRight"></path><path d="M184 20L418 254" stroke-width="10" stroke="url(#SvgjsLinearGradient1183)" stroke-linecap="round" class="TopLeft"></path><path d="M804 22L1196 414" stroke-width="6" stroke="url(#SvgjsLinearGradient1180)" stroke-linecap="round" class="TopLeft"></path><path d="M1004 247L709 -48" stroke-width="10" stroke="url(#SvgjsLinearGradient1181)" stroke-linecap="round" class="BottomRight"></path><path d="M648 531L249 132" stroke-width="10" stroke="url(#SvgjsLinearGradient1182)" stroke-linecap="round" class="BottomRight"></path><path d="M1250 186L1523 459" stroke-width="6" stroke="url(#SvgjsLinearGradient1183)" stroke-linecap="round" class="TopLeft"></path><path d="M808 132L1091 415" stroke-width="8" stroke="url(#SvgjsLinearGradient1181)" stroke-linecap="round" class="BottomRight"></path><path d="M427 174L185 -68" stroke-width="8" stroke="url(#SvgjsLinearGradient1183)" stroke-linecap="round" class="TopLeft"></path><path d="M660 481L288 109" stroke-width="6" stroke="url(#SvgjsLinearGradient1181)" stroke-linecap="round" class="BottomRight"></path><path d="M329 276L613 560" stroke-width="6" stroke="url(#SvgjsLinearGradient1183)" stroke-linecap="round" class="TopLeft"></path><path d="M799 545L573 319" stroke-width="10" stroke="url(#SvgjsLinearGradient1183)" stroke-linecap="round" class="TopLeft"></path><path d="M1189 359L1508 678" stroke-width="6" stroke="url(#SvgjsLinearGradient1181)" stroke-linecap="round" class="BottomRight"></path><path d="M939 101L573 -265" stroke-width="8" stroke="url(#SvgjsLinearGradient1182)" stroke-linecap="round" class="BottomRight"></path><path d="M131 90L274 233" stroke-width="8" stroke="url(#SvgjsLinearGradient1183)" stroke-linecap="round" class="TopLeft"></path><path d="M799 227L503 -69" stroke-width="6" stroke="url(#SvgjsLinearGradient1183)" stroke-linecap="round" class="TopLeft"></path><path d="M72 189L-222 -105" stroke-width="6" stroke="url(#SvgjsLinearGradient1181)" stroke-linecap="round" class="BottomRight"></path><path d="M757 447L981 671" stroke-width="10" stroke="url(#SvgjsLinearGradient1182)" stroke-linecap="round" class="BottomRight"></path><path d="M883 58L639 -186" stroke-width="10" stroke="url(#SvgjsLinearGradient1183)" stroke-linecap="round" class="TopLeft"></path><path d="M839 435L683 279" stroke-width="10" stroke="url(#SvgjsLinearGradient1182)" stroke-linecap="round" class="BottomRight"></path><path d="M1054 330L891 167" stroke-width="8" stroke="url(#SvgjsLinearGradient1183)" stroke-linecap="round" class="TopLeft"></path><path d="M66 530L-133 331" stroke-width="6" stroke="url(#SvgjsLinearGradient1181)" stroke-linecap="round" class="BottomRight"></path><path d="M1353 17L1733 397" stroke-width="10" stroke="url(#SvgjsLinearGradient1182)" stroke-linecap="round" class="BottomRight"></path><path d="M268 269L483 484" stroke-width="6" stroke="url(#SvgjsLinearGradient1180)" stroke-linecap="round" class="TopLeft"></path><path d="M594 277L310 -7" stroke-width="8" stroke="url(#SvgjsLinearGradient1180)" stroke-linecap="round" class="TopLeft"></path><path d="M112 107L406 401" stroke-width="8" stroke="url(#SvgjsLinearGradient1182)" stroke-linecap="round" class="BottomRight"></path><path d="M606 229L354 -23" stroke-width="10" stroke="url(#SvgjsLinearGradient1180)" stroke-linecap="round" class="TopLeft"></path><path d="M328 248L604 524" stroke-width="8" stroke="url(#SvgjsLinearGradient1183)" stroke-linecap="round" class="TopLeft"></path></g><defs><mask id="SvgjsMask1179"><rect width="1440" height="560" fill="#ffffff"></rect></mask><linearGradient x1="100%" y1="100%" x2="0%" y2="0%" id="SvgjsLinearGradient1180"><stop stop-color="rgba(61, 63, 75, 0)" offset="0"></stop><stop stop-color="rgba(61, 63, 75, 1)" offset="1"></stop></linearGradient><linearGradient x1="0%" y1="0%" x2="100%" y2="100%" id="SvgjsLinearGradient1181"><stop stop-color="rgba(61, 63, 95, 0)" offset="0"></stop><stop stop-color="rgba(61, 63, 95, 1)" offset="1"></stop></linearGradient><linearGradient x1="0%" y1="0%" x2="100%" y2="100%" id="SvgjsLinearGradient1182"><stop stop-color="rgba(61, 63, 75, 0)" offset="0"></stop><stop stop-color="rgba(61, 63, 75, 1)" offset="1"></stop></linearGradient><linearGradient x1="100%" y1="100%" x2="0%" y2="0%" id="SvgjsLinearGradient1183"><stop stop-color="rgba(61, 63, 95, 0)" offset="0"></stop><stop stop-color="rgba(61, 63, 95, 1)" offset="1"></stop></linearGradient></defs></svg>